# xmcd
#
# Track frame offsets:
#	150
#	18929
#	36850
#	51505
#	68857
#	87994
#	102884
#	120447
#	136137
#	155672
#	170594
#	189189
#	207289
#	225960
#	243000
#
# Disc length: 3456 seconds
#
# Revision: 1
# Processed by: cddbd v1.5.2PL0 Copyright (c) Steve Scherf et al.
# Submitted via: audiograbber 1.83.01
#
DISCID=bb0d7e0f
DTITLE=Country - CB60233
DYEAR=2002
DGENRE=Karaoke
TTITLE0=This Pretender
TTITLE1=Still Smokin'
TTITLE2=My Future Ex-Boyfriend
TTITLE3=I Miss My Friend
TTITLE4=Anything That Touches You
TTITLE5=Cool Me Down
TTITLE6=Chasin' Amy
TTITLE7=Barb Wire and Roses
TTITLE8=Almost There
TTITLE9=Ten Rounds With Jose' Cuervo
TTITLE10=The Impossible
TTITLE11=I'm Gone
TTITLE12=Highway Sunrise
TTITLE13=I'll Take Love Over Money
TTITLE14=Not Pretty Enough
EXTD=
EXTT0=
EXTT1=
EXTT2=
EXTT3=
EXTT4=
EXTT5=
EXTT6=
EXTT7=
EXTT8=
EXTT9=
EXTT10=
EXTT11=
EXTT12=
EXTT13=
EXTT14=
PLAYORDER=
